<svg width="301" height="521" viewBox="0 0 301 521" fill="none" xmlns="http://www.w3.org/2000/svg">
<path d="M0.0723102 269.086L107.519 240.296L11.1914 184.702L69.9611 82.9095L166.271 138.535L137.481 31.0879L251.007 0.668457L279.798 108.115L353.233 382.18L382.023 489.626L268.497 520.046L239.706 412.599L184.112 508.927L82.3198 450.157L137.938 353.823L30.4917 382.613L0.0723102 269.086Z" fill="url(#paint0_linear_19_11067)"/>
<path d="M139.029 354.452L84.0395 449.696L183.651 507.207L238.616 411.97L240.135 409.337L240.922 412.273L269.387 518.504L380.481 488.736L352.017 382.505L278.582 108.441L250.117 2.2103L139.023 31.978L167.487 138.209L168.274 141.145L165.641 139.625L70.4218 84.6294L12.9112 184.241L108.148 239.206L110.781 240.725L107.845 241.512L1.61415 269.976L31.3819 381.071L137.613 352.607L140.548 351.82L139.029 354.452Z" stroke="#101828" stroke-opacity="0.1" stroke-width="2.51781"/>
<defs>
<linearGradient id="paint0_linear_19_11067" x1="100.392" y1="41.0256" x2="231.408" y2="529.983" gradientUnits="userSpaceOnUse">
<stop stop-color="#068A90"/>
<stop offset="1" stop-color="#9FF21C"/>
</linearGradient>
</defs>
</svg>
