<svg width="21" height="21" viewBox="0 0 21 21" fill="none" xmlns="http://www.w3.org/2000/svg">
<path fill-rule="evenodd" clip-rule="evenodd" d="M9.24997 2.25391C8.12046 2.254 7.00735 2.52421 6.00351 3.04198C4.99967 3.55976 4.13421 4.31009 3.47933 5.23037C2.82445 6.15065 2.39914 7.2142 2.23889 8.33228C2.07864 9.45036 2.18809 10.5905 2.55812 11.6577C2.92814 12.7249 3.54801 13.6881 4.366 14.467C5.18399 15.2459 6.17639 15.8179 7.2604 16.1352C8.3444 16.4526 9.48859 16.5061 10.5975 16.2913C11.7064 16.0766 12.7478 15.5997 13.635 14.9006L16.6783 17.9439C16.8355 18.0957 17.046 18.1797 17.2645 18.1778C17.483 18.1759 17.692 18.0883 17.8465 17.9338C18.001 17.7792 18.0886 17.5702 18.0905 17.3517C18.0924 17.1332 18.0084 16.9227 17.8566 16.7656L14.8133 13.7222C15.6366 12.6778 16.1493 11.4226 16.2926 10.1003C16.4358 8.77812 16.204 7.44226 15.6235 6.24565C15.043 5.04905 14.1374 4.04004 13.0102 3.3341C11.8831 2.62816 10.5799 2.25382 9.24997 2.25391ZM3.8333 9.33724C3.8333 7.90065 4.40398 6.5229 5.41981 5.50708C6.43563 4.49126 7.81338 3.92057 9.24997 3.92057C10.6866 3.92057 12.0643 4.49126 13.0801 5.50708C14.096 6.5229 14.6666 7.90065 14.6666 9.33724C14.6666 10.7738 14.096 12.1516 13.0801 13.1674C12.0643 14.1832 10.6866 14.7539 9.24997 14.7539C7.81338 14.7539 6.43563 14.1832 5.41981 13.1674C4.40398 12.1516 3.8333 10.7738 3.8333 9.33724Z" fill="#627882"/>
</svg>
