<svg width="251" height="521" viewBox="0 0 251 521" fill="none" xmlns="http://www.w3.org/2000/svg">
<path d="M0.0644977 269.082L107.511 240.292L11.1836 184.698L69.9533 82.9056L166.263 138.531L137.473 31.0839L251 0.664551L279.79 108.111L353.225 382.176L382.015 489.622L268.489 520.042L239.698 412.595L184.104 508.923L82.312 450.153L137.931 353.819L30.4839 382.609L0.0644977 269.082Z" fill="white" fill-opacity="0.1"/>
<path d="M139.021 354.448L84.0317 449.692L183.643 507.203L238.608 411.966L240.128 409.333L240.914 412.269L269.379 518.5L380.474 488.732L352.009 382.501L278.574 108.437L250.109 2.20639L139.015 31.9741L167.479 138.205L168.266 141.141L165.633 139.621L70.414 84.6254L12.9034 184.237L108.14 239.202L110.773 240.721L107.837 241.508L1.60634 269.972L31.3741 381.067L137.605 352.603L140.54 351.816L139.021 354.448Z" stroke="#101828" stroke-opacity="0.1" stroke-width="2.51781"/>
</svg>
