<svg width="23" height="23" viewBox="0 0 23 23" fill="none" xmlns="http://www.w3.org/2000/svg">
<path d="M0.5 11.5879C0.5 5.51276 5.42487 0.587891 11.5 0.587891C17.5751 0.587891 22.5 5.51276 22.5 11.5879C22.5 17.663 17.5751 22.5879 11.5 22.5879C5.42487 22.5879 0.5 17.663 0.5 11.5879Z" fill="#70E000" fill-opacity="0.1"/>
<path fill-rule="evenodd" clip-rule="evenodd" d="M16.1717 7.36094L9.60834 13.6951L7.86667 11.8343C7.54584 11.5318 7.04167 11.5134 6.67501 11.7701C6.31751 12.0359 6.21667 12.5034 6.43667 12.8793L8.49917 16.2343C8.70084 16.5459 9.04917 16.7384 9.44334 16.7384C9.81917 16.7384 10.1767 16.5459 10.3783 16.2343C10.7083 15.8034 17.0058 8.29594 17.0058 8.29594C17.8308 7.45261 16.8317 6.71011 16.1717 7.35178V7.36094Z" fill="#004B23"/>
</svg>
