<svg width="21" height="21" viewBox="0 0 21 21" fill="none" xmlns="http://www.w3.org/2000/svg">
<path d="M18 8.89323H3M13.8333 2.22656V5.5599M7.16667 2.22656V5.5599M7 18.8932H14C15.4001 18.8932 16.1002 18.8932 16.635 18.6207C17.1054 18.3811 17.4878 17.9986 17.7275 17.5282C18 16.9934 18 16.2934 18 14.8932V7.89323C18 6.4931 18 5.79303 17.7275 5.25825C17.4878 4.78785 17.1054 4.4054 16.635 4.16571C16.1002 3.89323 15.4001 3.89323 14 3.89323H7C5.59987 3.89323 4.8998 3.89323 4.36502 4.16571C3.89462 4.4054 3.51217 4.78785 3.27248 5.25825C3 5.79303 3 6.4931 3 7.89323V14.8932C3 16.2934 3 16.9934 3.27248 17.5282C3.51217 17.9986 3.89462 18.3811 4.36502 18.6207C4.8998 18.8932 5.59987 18.8932 7 18.8932Z" stroke="#475467" stroke-width="1.66667" stroke-linecap="round" stroke-linejoin="round"/>
</svg>
