<svg width="36" height="36" viewBox="0 0 36 36" fill="none" xmlns="http://www.w3.org/2000/svg">
<g opacity="0.3">
<path d="M5.33333 18.0879C5.33333 11.0923 11.0044 5.42122 18 5.42122C24.9956 5.42122 30.6667 11.0923 30.6667 18.0879C30.6667 25.0835 24.9956 30.7546 18 30.7546C11.0044 30.7546 5.33333 25.0835 5.33333 18.0879Z" stroke="#DC6803" stroke-width="1.66667"/>
</g>
<g opacity="0.1">
<path d="M1.33333 18.0879C1.33333 8.88315 8.79525 1.42122 18 1.42122C27.2047 1.42122 34.6667 8.88315 34.6667 18.0879C34.6667 27.2926 27.2047 34.7546 18 34.7546C8.79525 34.7546 1.33333 27.2926 1.33333 18.0879Z" stroke="#DC6803" stroke-width="1.66667"/>
</g>
<path d="M17.5003 14.2539V17.5872M17.5003 20.9206H17.5087M25.8337 17.5872C25.8337 22.1896 22.1027 25.9206 17.5003 25.9206C12.898 25.9206 9.16699 22.1896 9.16699 17.5872C9.16699 12.9849 12.898 9.25391 17.5003 9.25391C22.1027 9.25391 25.8337 12.9849 25.8337 17.5872Z" stroke="#DC6803" stroke-width="1.66667" stroke-linecap="round" stroke-linejoin="round"/>
</svg>
