<svg width="33" height="33" viewBox="0 0 33 33" fill="none" xmlns="http://www.w3.org/2000/svg">
<path d="M29.8764 15.0713V16.298C29.8747 19.1732 28.9437 21.9709 27.2222 24.2738C25.5006 26.5766 23.0808 28.2613 20.3235 29.0765C17.5663 29.8918 14.6194 29.7939 11.9223 28.7974C9.22529 27.801 6.92259 25.9595 5.35766 23.5474C3.79274 21.1354 3.04944 18.2821 3.23862 15.4131C3.4278 12.5441 4.53933 9.8131 6.40742 7.62743C8.27552 5.44176 10.8001 3.91851 13.6046 3.28486C16.4092 2.65121 19.3434 2.94111 21.9697 4.11133M29.8764 5.6237L16.543 18.9704L12.543 14.9704" stroke="url(#paint0_linear_19_10795)" stroke-width="2.66667" stroke-linecap="round" stroke-linejoin="round"/>
<defs>
<linearGradient id="paint0_linear_19_10795" x1="4.39251" y1="2.95703" x2="31.3107" y2="4.89009" gradientUnits="userSpaceOnUse">
<stop stop-color="#70E000"/>
<stop offset="1" stop-color="#008000"/>
</linearGradient>
</defs>
</svg>
