<svg width="60" height="60" viewBox="0 0 60 60" fill="none" xmlns="http://www.w3.org/2000/svg">
<path d="M17.4871 17.5174C16.5108 18.4937 16.5108 20.0766 17.4871 21.0529L26.45 30.0157L17.4871 38.9787C16.5108 39.955 16.5108 41.538 17.4871 42.5142C18.4634 43.4905 20.0464 43.4905 21.0227 42.5142L29.9855 33.5512L38.9485 42.5142C39.9247 43.4905 41.5077 43.4905 42.484 42.5142C43.4602 41.538 43.4602 39.955 42.484 38.9787L33.521 30.0157L42.484 21.053C43.4602 20.0767 43.4602 18.4937 42.484 17.5174C41.5075 16.5411 39.9247 16.5411 38.9485 17.5174L29.9855 26.4802L21.0227 17.5174C20.0464 16.5411 18.4634 16.5411 17.4871 17.5174Z" fill="white"/>
</svg>
