<svg width="239" height="520" viewBox="0 0 239 520" fill="none" xmlns="http://www.w3.org/2000/svg">
<path d="M238.095 269.008L130.648 240.218L226.976 184.624L168.206 82.8314L71.8961 138.456L100.686 31.0097L-12.8404 0.590332L-41.6307 108.037L-115.066 382.101L-143.856 489.548L-30.3295 519.968L-1.53928 412.521L54.0549 508.848L155.847 450.079L100.229 353.745L207.675 382.535L238.095 269.008Z" fill="url(#paint0_linear_19_11358)"/>
<path d="M99.1384 354.374L154.127 449.618L54.5159 507.129L-0.448939 411.892L-1.9685 409.259L-2.7553 412.195L-31.2197 518.426L-142.314 488.658L-113.85 382.427L-40.4147 108.363L-11.9502 2.13217L99.1445 31.8999L70.68 138.131L69.8932 141.067L72.5257 139.547L167.745 84.5512L225.256 184.163L130.019 239.127L127.386 240.647L130.322 241.434L236.553 269.898L206.785 380.993L100.554 352.529L97.6187 351.742L99.1384 354.374Z" stroke="#101828" stroke-opacity="0.1" stroke-width="2.51781"/>
<defs>
<linearGradient id="paint0_linear_19_11358" x1="137.775" y1="40.9475" x2="6.75877" y2="529.905" gradientUnits="userSpaceOnUse">
<stop stop-color="#068A90"/>
<stop offset="1" stop-color="#9FF21C"/>
</linearGradient>
</defs>
</svg>
