<svg width="21" height="21" viewBox="0 0 21 21" fill="none" xmlns="http://www.w3.org/2000/svg">
<path d="M14.667 12.6448V10.1402C14.667 9.99062 14.667 9.91584 14.6442 9.84981C14.6241 9.79143 14.5912 9.73825 14.548 9.69413C14.4991 9.64423 14.4322 9.61079 14.2985 9.5439L10.5003 7.64483M3.83366 8.47816V14.1503C3.83366 14.4603 3.83366 14.6152 3.88201 14.7509C3.92475 14.8709 3.99441 14.9794 4.08564 15.0682C4.18884 15.1687 4.32972 15.2333 4.61145 15.3624L9.94479 17.8069C10.1491 17.9005 10.2513 17.9474 10.3578 17.9659C10.4521 17.9822 10.5485 17.9822 10.6429 17.9659C10.7493 17.9474 10.8515 17.9005 11.0559 17.8069L16.3892 15.3624C16.6709 15.2333 16.8118 15.1687 16.915 15.0682C17.0062 14.9794 17.0759 14.8709 17.1186 14.7509C17.167 14.6152 17.167 14.4603 17.167 14.1503V8.47816M2.16699 7.64483L10.2022 3.62723C10.3115 3.57257 10.3662 3.54525 10.4235 3.53449C10.4743 3.52496 10.5264 3.52496 10.5772 3.53449C10.6345 3.54525 10.6891 3.57257 10.7985 3.62723L18.8337 7.64483L10.7985 11.6624C10.6891 11.7171 10.6345 11.7444 10.5772 11.7552C10.5264 11.7647 10.4743 11.7647 10.4235 11.7552C10.3662 11.7444 10.3115 11.7171 10.2022 11.6624L2.16699 7.64483Z" stroke="#475467" stroke-width="1.66667" stroke-linecap="round" stroke-linejoin="round"/>
</svg>
