<svg width="21" height="21" viewBox="0 0 21 21" fill="none" xmlns="http://www.w3.org/2000/svg">
<path d="M17.9997 18.0615H11.333M2.58301 18.4781L7.2074 16.6995C7.50318 16.5857 7.65107 16.5289 7.78944 16.4546C7.91234 16.3886 8.02951 16.3125 8.13971 16.227C8.26378 16.1307 8.37582 16.0186 8.59991 15.7946L17.9997 6.39478C18.9202 5.47431 18.9202 3.98193 17.9997 3.06145C17.0792 2.14098 15.5868 2.14097 14.6664 3.06145L5.26658 12.4612C5.04249 12.6853 4.93044 12.7973 4.83417 12.9214C4.74865 13.0316 4.67251 13.1488 4.60654 13.2717C4.53226 13.4101 4.47538 13.5579 4.36162 13.8537L2.58301 18.4781ZM2.58301 18.4781L4.29811 14.0189C4.42084 13.6998 4.4822 13.5403 4.58746 13.4672C4.67944 13.4033 4.79326 13.3792 4.90325 13.4002C5.02912 13.4242 5.14999 13.5451 5.39174 13.7868L7.27432 15.6694C7.51607 15.9112 7.63694 16.032 7.66098 16.1579C7.68198 16.2679 7.65783 16.3817 7.59396 16.4737C7.52088 16.5789 7.36133 16.6403 7.04223 16.763L2.58301 18.4781Z" stroke="#475467" stroke-width="1.66667" stroke-linecap="round" stroke-linejoin="round"/>
</svg>
