<svg width="21" height="21" viewBox="0 0 21 21" fill="none" xmlns="http://www.w3.org/2000/svg">
<path d="M8.00016 9.31055L9.66683 10.9772L13.4168 7.22721M17.1668 18.0605V7.06055C17.1668 5.66042 17.1668 4.96035 16.8943 4.42557C16.6547 3.95517 16.2722 3.57271 15.8018 3.33303C15.267 3.06055 14.567 3.06055 13.1668 3.06055H7.8335C6.43336 3.06055 5.7333 3.06055 5.19852 3.33303C4.72811 3.57271 4.34566 3.95517 4.10598 4.42557C3.8335 4.96035 3.8335 5.66042 3.8335 7.06055V18.0605L6.12516 16.3939L8.2085 18.0605L10.5002 16.3939L12.7918 18.0605L14.8752 16.3939L17.1668 18.0605Z" stroke="#475467" stroke-width="1.66667" stroke-linecap="round" stroke-linejoin="round"/>
</svg>
