<svg width="21" height="21" viewBox="0 0 21 21" fill="none" xmlns="http://www.w3.org/2000/svg">
<path d="M13.8333 5.5599V4.89323C13.8333 3.95981 13.8333 3.4931 13.6517 3.13658C13.4919 2.82297 13.2369 2.56801 12.9233 2.40822C12.5668 2.22656 12.1001 2.22656 11.1667 2.22656H9.83333C8.89991 2.22656 8.4332 2.22656 8.07668 2.40822C7.76308 2.56801 7.50811 2.82297 7.34832 3.13658C7.16667 3.4931 7.16667 3.95981 7.16667 4.89323V5.5599M3 5.5599H18M16.3333 5.5599V14.8932C16.3333 16.2934 16.3333 16.9934 16.0608 17.5282C15.8212 17.9986 15.4387 18.3811 14.9683 18.6207C14.4335 18.8932 13.7335 18.8932 12.3333 18.8932H8.66667C7.26654 18.8932 6.56647 18.8932 6.03169 18.6207C5.56129 18.3811 5.17883 17.9986 4.93915 17.5282C4.66667 16.9934 4.66667 16.2934 4.66667 14.8932V5.5599" stroke="#475467" stroke-width="1.66667" stroke-linecap="round" stroke-linejoin="round"/>
</svg>
