<svg width="225" height="43" viewBox="0 0 225 43" fill="none" xmlns="http://www.w3.org/2000/svg">
<g clip-path="url(#clip0_2_20808)">
<path d="M36.4989 42.5602C34.1552 42.5602 31.7791 42.1657 29.461 41.3628C22.5182 38.9565 17.4411 33.3272 15.8771 26.3055C14.6148 20.8501 15.5522 15.2277 18.5131 10.4754C21.4787 5.71621 26.1195 2.39798 31.5819 1.13102C35.7099 0.172678 39.903 0.427927 43.3906 1.85036C47.2425 3.4213 49.9203 6.33809 50.7371 9.85124L43.864 11.4477C43.2467 8.78848 38.7079 6.72097 33.1783 8.00417C29.5538 8.84649 26.4722 11.0486 24.5045 14.2067C22.5368 17.3648 21.9149 21.1007 22.7572 24.7276L22.7642 24.7624C23.7898 29.3824 27.1568 33.0974 31.7745 34.6985C36.4014 36.302 41.3532 35.4736 45.0149 32.4802L49.4794 37.9425C45.7621 40.98 41.1931 42.5625 36.4989 42.5625V42.5602Z" fill="url(#paint0_linear_2_20808)"/>
<path d="M25.8413 30.907C18.0678 30.907 10.1992 28.0134 4.86914 21.1101L10.4544 16.7987C14.3064 21.7853 20.0657 23.876 25.832 23.876C29.6329 23.876 33.4338 22.9687 36.6917 21.3862C40.8592 19.3605 44.9292 15.6686 43.8479 11.3805L50.6886 9.65637C51.626 13.376 50.8951 17.1352 48.5723 20.53C46.6069 23.4027 43.5648 25.8925 39.7755 27.7349C35.6104 29.7584 30.7444 30.9093 25.8413 30.9093V30.907Z" fill="url(#paint1_linear_2_20808)"/>
<path d="M52.4408 35.4597C54.6873 35.4597 56.5085 33.6385 56.5085 31.392C56.5085 29.1454 54.6873 27.3242 52.4408 27.3242C50.1942 27.3242 48.373 29.1454 48.373 31.392C48.373 33.6385 50.1942 35.4597 52.4408 35.4597Z" fill="#068C90"/>
<path d="M4.39834 18.4979C6.55134 18.4979 8.29668 16.7525 8.29668 14.5995C8.29668 12.4465 6.55134 10.7012 4.39834 10.7012C2.24535 10.7012 0.5 12.4465 0.5 14.5995C0.5 16.7525 2.24535 18.4979 4.39834 18.4979Z" fill="#9FF21C"/>
</g>
<path d="M73.0086 41.4678C67.4433 41.4678 64.3813 38.6098 64.3813 33.42C64.4231 31.4058 64.6433 24.9783 64.7244 22.6395C64.7429 22.0994 64.7545 21.7726 64.7545 21.7633C64.7545 21.3206 64.5019 21.316 63.5631 21.2974C62.9721 21.2858 61.4956 21.258 61.0065 21.163C60.8466 20.2752 60.8257 16.4716 60.9694 15.4587C60.9694 15.4587 61.5466 15.4633 61.9267 15.4726C62.4111 15.4795 62.9582 15.4911 63.431 15.4911C64.5784 15.4911 64.7313 15.4424 64.882 15.3057C65.0674 15.0577 65.0767 14.9024 65.0628 13.1709C65.0535 11.961 65.0327 9.44372 65.2413 9.05199C65.64 8.85729 69.8354 8.44702 72.0768 8.44702C72.3642 8.44702 72.538 8.45398 72.64 8.46325C72.6516 8.98709 72.5357 11.5576 72.4731 12.9785C72.4105 14.4086 72.385 14.9649 72.4129 15.2199L72.1973 22.1249C72.1973 22.2339 72.1787 23.0428 72.1509 24.1832C72.1023 26.2902 72.0258 29.5213 71.991 31.5101C71.991 33.529 73.1198 34.7621 75.0112 34.82C76.2165 34.82 77.1993 34.3449 77.9155 33.9972C78.2655 33.8257 78.6295 33.6495 78.8033 33.6495C79.1394 33.9902 80.1523 37.7499 80.2937 39.1499C79.7861 39.6413 77.6003 41.4747 73.1592 41.4747H73.0062L73.0086 41.4678Z" fill="#002333"/>
<path d="M72.3247 15.7067C72.9645 15.7971 75.8224 15.8828 78.4463 15.9663C78.845 15.9848 79.1695 16.3348 79.2019 16.7799C79.2807 17.9504 79.1718 19.7398 79.0999 20.7017C79.0605 21.1329 78.7638 21.469 78.3907 21.4944C77.0463 21.6034 73.1059 21.6683 72.1602 21.6892L72.327 15.7067H72.3247Z" fill="url(#paint2_linear_2_20808)"/>
<path d="M88.8743 41.0599C87.4488 41.0599 85.8912 41.0413 84.9247 41.0297C84.6187 41.0251 84.3753 40.7864 84.366 40.485C84.2362 35.0241 84.1435 9.49707 84.3035 2.92352C84.3174 2.31623 84.8088 1.84106 85.4184 1.84106C87.02 1.84338 89.5303 1.9616 90.884 2.03345C91.4658 2.06358 91.9085 2.52484 91.9131 3.10664C91.9456 6.81759 91.7393 16.7335 91.6048 17.8438L91.4078 19.4918L92.3883 18.1521C93.8462 16.1587 96.0645 15.1481 98.9804 15.1481C105.577 15.1481 109.36 19.1442 109.36 26.1118C109.36 29.1598 109.038 37.6526 108.732 40.3204C108.699 40.594 108.491 40.8003 108.208 40.835C107.285 40.9463 105.482 41.0135 103.382 41.0135C102.793 41.0135 102.256 41.0089 101.829 40.9996C101.502 40.9926 101.243 40.7307 101.24 40.4062C101.219 38.436 101.264 33.9254 101.296 30.627C101.312 28.9349 101.326 27.5628 101.326 27.0134C101.326 24.3988 99.8102 21.7541 96.9151 21.7541C93.8207 21.7541 91.9734 24.1856 91.9734 26.5359C91.9734 28.2303 91.934 37.6039 91.8274 40.4897C91.8158 40.7887 91.584 41.0205 91.2873 41.032C90.673 41.0529 89.8015 41.0599 88.8743 41.0599Z" fill="#002333"/>
<path d="M135.033 41.1874C133.839 41.1874 132.859 41.1642 132.393 41.1387C132.316 39.7341 132.407 33.733 132.455 30.3837C132.479 28.7936 132.497 27.5234 132.497 27.0112C132.497 23.685 130.828 21.6985 128.033 21.6985C124.883 21.6985 122.931 24.181 122.931 26.4804C122.931 29.0022 122.876 39.0225 122.762 40.8467C122.461 40.8699 121.858 40.893 120.801 40.893C118.532 40.893 116.177 40.7934 115.477 40.6775C115.407 39.1917 115.229 27.1178 115.363 16.4647C115.368 16.1425 115.59 15.8737 115.906 15.8064C117.18 15.5376 119.478 15.3962 121.086 15.3962C121.503 15.3962 121.886 15.4054 122.21 15.424C122.57 15.4449 122.85 15.7647 122.836 16.1333L122.829 16.321C122.797 17.1161 122.757 18.1035 122.725 18.2982L123.518 18.6111C124.067 17.7859 126.246 15.0948 131.213 15.0948C136.649 15.0948 140.16 19.42 140.16 26.1095C140.16 29.5608 139.958 38.1278 139.754 40.9556C139.252 41.0715 137.668 41.1851 135.031 41.1851L135.033 41.1874Z" fill="#002333"/>
<path d="M157.932 41.4192C148.326 41.4192 144.903 34.8248 144.903 28.6545C144.903 22.4843 148.764 15.2548 157.243 15.2548C164.406 15.2548 168.151 20.6902 168.151 26.0585C168.151 27.5303 168.022 28.7681 167.769 29.7439C165.877 29.9549 161.434 30.0313 157.772 30.0313C155.681 30.0313 153.801 30.0082 152.698 29.9711L152.248 29.9572V30.4068C152.248 33.5337 154.531 35.3996 158.356 35.3996C161.068 35.3996 163.022 34.5211 164.45 33.682C165.099 34.6764 166.575 37.7453 166.839 38.6701C165.483 39.7943 162.069 41.4192 157.932 41.4192ZM157.188 20.3217C154.293 20.3217 152.193 22.5121 152.193 25.5277V25.9727L161.369 25.7966L161.385 25.3863C161.45 23.7916 161.005 22.4101 160.129 21.4992C159.39 20.7296 158.372 20.3217 157.185 20.3217H157.188Z" fill="#002333"/>
<path d="M184.648 41.4192C175.042 41.4192 171.619 34.8248 171.619 28.6545C171.619 22.4843 175.48 15.2548 183.959 15.2548C191.121 15.2548 194.867 20.6902 194.867 26.0585C194.867 27.5303 194.737 28.7681 194.485 29.7439C192.593 29.9549 188.15 30.0313 184.488 30.0313C182.397 30.0313 180.517 30.0082 179.414 29.9711L178.964 29.9572V30.4068C178.964 33.5337 181.247 35.3996 185.072 35.3996C187.786 35.3996 189.738 34.5211 191.165 33.682C191.814 34.6741 193.291 37.7453 193.555 38.6701C192.199 39.7943 188.785 41.4192 184.648 41.4192ZM183.906 20.3217C181.013 20.3217 178.913 22.5121 178.913 25.5277V25.9727L188.09 25.7966L188.106 25.3863C188.171 23.7916 187.726 22.4101 186.85 21.4992C186.11 20.7296 185.093 20.3217 183.906 20.3217Z" fill="#002333"/>
<path d="M219.319 41.1874C218.123 41.1874 217.145 41.1642 216.679 41.1387C216.602 39.7341 216.693 33.7331 216.741 30.3814C216.764 28.7936 216.783 27.5211 216.783 27.0112C216.783 23.685 215.114 21.6985 212.319 21.6985C209.169 21.6985 207.219 24.181 207.219 26.4804C207.219 29.0022 207.164 39.0225 207.05 40.8467C206.749 40.8699 206.146 40.893 205.089 40.893C202.818 40.893 200.463 40.7934 199.765 40.6775C199.693 39.1592 199.512 26.5684 199.658 15.9293C200.212 15.6975 202.818 15.3985 205.372 15.3985C206.403 15.3985 206.911 15.4518 207.152 15.4935L207.115 16.3349C207.083 17.1253 207.043 18.1081 207.011 18.3005L207.804 18.6134C208.353 17.7882 210.534 15.0972 215.499 15.0972C220.934 15.0972 224.446 19.4224 224.446 26.1118C224.446 29.5585 224.244 38.1255 224.04 40.9579C223.537 41.0738 221.954 41.1874 219.316 41.1874H219.319Z" fill="#002333"/>
<defs>
<linearGradient id="paint0_linear_2_20808" x1="31.8789" y1="40.1864" x2="33.3152" y2="10.9743" gradientUnits="userSpaceOnUse">
<stop stop-color="#068A90"/>
<stop offset="0.66" stop-color="#02C685"/>
</linearGradient>
<linearGradient id="paint1_linear_2_20808" x1="9.81168" y1="26.4819" x2="47.7672" y2="16.8358" gradientUnits="userSpaceOnUse">
<stop stop-color="#9FF21C"/>
<stop offset="1" stop-color="#02C685"/>
</linearGradient>
<linearGradient id="paint2_linear_2_20808" x1="72.6678" y1="18.6968" x2="84.5261" y2="18.6968" gradientUnits="userSpaceOnUse">
<stop stop-color="#002333"/>
<stop offset="0.54" stop-color="#02C685"/>
</linearGradient>
<clipPath id="clip0_2_20808">
<rect width="56.0085" height="42" fill="white" transform="translate(0.5 0.560547)"/>
</clipPath>
</defs>
</svg>
