<svg width="21" height="21" viewBox="0 0 21 21" fill="none" xmlns="http://www.w3.org/2000/svg">
<path d="M6.75 9.31055H6.75833M10.5 9.31055H10.5083M14.25 9.31055H14.2583M6.33333 15.5605V17.5068C6.33333 17.9508 6.33333 18.1729 6.42436 18.2869C6.50352 18.3861 6.62356 18.4438 6.75045 18.4436C6.89636 18.4435 7.06973 18.3048 7.41646 18.0274L9.40434 16.4371C9.81043 16.1122 10.0135 15.9498 10.2396 15.8343C10.4402 15.7318 10.6537 15.6569 10.8743 15.6116C11.1231 15.5605 11.3831 15.5605 11.9031 15.5605H14C15.4001 15.5605 16.1002 15.5605 16.635 15.2881C17.1054 15.0484 17.4878 14.6659 17.7275 14.1955C18 13.6607 18 12.9607 18 11.5605V7.06055C18 5.66042 18 4.96035 17.7275 4.42557C17.4878 3.95517 17.1054 3.57271 16.635 3.33303C16.1002 3.06055 15.4001 3.06055 14 3.06055H7C5.59987 3.06055 4.8998 3.06055 4.36502 3.33303C3.89462 3.57271 3.51217 3.95517 3.27248 4.42557C3 4.96035 3 5.66042 3 7.06055V12.2272C3 13.0022 3 13.3897 3.08519 13.7076C3.31635 14.5703 3.99022 15.2442 4.85295 15.4754C5.17087 15.5605 5.55836 15.5605 6.33333 15.5605ZM7.16667 9.31055C7.16667 9.54067 6.98012 9.72721 6.75 9.72721C6.51988 9.72721 6.33333 9.54067 6.33333 9.31055C6.33333 9.08043 6.51988 8.89388 6.75 8.89388C6.98012 8.89388 7.16667 9.08043 7.16667 9.31055ZM10.9167 9.31055C10.9167 9.54067 10.7301 9.72721 10.5 9.72721C10.2699 9.72721 10.0833 9.54067 10.0833 9.31055C10.0833 9.08043 10.2699 8.89388 10.5 8.89388C10.7301 8.89388 10.9167 9.08043 10.9167 9.31055ZM14.6667 9.31055C14.6667 9.54067 14.4801 9.72721 14.25 9.72721C14.0199 9.72721 13.8333 9.54067 13.8333 9.31055C13.8333 9.08043 14.0199 8.89388 14.25 8.89388C14.4801 8.89388 14.6667 9.08043 14.6667 9.31055Z" stroke="#222222" stroke-width="1.66667" stroke-linecap="round" stroke-linejoin="round"/>
</svg>
