<svg width="21" height="21" viewBox="0 0 21 21" fill="none" xmlns="http://www.w3.org/2000/svg">
<path d="M8.29545 18.0618C8.88306 18.5805 9.65493 18.8952 10.5003 18.8952C11.3457 18.8952 12.1175 18.5805 12.7052 18.0618M15.5003 7.22852C15.5003 5.90243 14.9735 4.63066 14.0358 3.69298C13.0982 2.7553 11.8264 2.22852 10.5003 2.22852C9.17422 2.22852 7.90245 2.7553 6.96477 3.69298C6.02708 4.63066 5.5003 5.90243 5.5003 7.22852C5.5003 9.80367 4.85069 11.5668 4.12502 12.733C3.51291 13.7167 3.20685 14.2086 3.21807 14.3458C3.2305 14.4977 3.26268 14.5557 3.38511 14.6465C3.49568 14.7285 3.99413 14.7285 4.99101 14.7285H16.0096C17.0065 14.7285 17.5049 14.7285 17.6155 14.6465C17.7379 14.5557 17.7701 14.4977 17.7825 14.3458C17.7938 14.2086 17.4877 13.7167 16.8756 12.733C16.1499 11.5668 15.5003 9.80367 15.5003 7.22852Z" stroke="#222222" stroke-width="1.66667" stroke-linecap="round" stroke-linejoin="round"/>
</svg>
