<svg width="20" height="20" viewBox="0 0 20 20" fill="none" xmlns="http://www.w3.org/2000/svg">
<g clip-path="url(#clip0_19_10923)">
<path d="M7.08341 12.2235C7.08341 13.2974 7.95397 14.168 9.02786 14.168H10.8334C11.984 14.168 12.9167 13.2352 12.9167 12.0846C12.9167 10.934 11.984 10.0013 10.8334 10.0013H9.16675C8.01616 10.0013 7.08341 9.06856 7.08341 7.91797C7.08341 6.76738 8.01616 5.83464 9.16675 5.83464H10.9723C12.0462 5.83464 12.9167 6.70519 12.9167 7.77908M10.0001 4.58464V5.83464M10.0001 14.168V15.418M18.3334 10.0013C18.3334 14.6037 14.6025 18.3346 10.0001 18.3346C5.39771 18.3346 1.66675 14.6037 1.66675 10.0013C1.66675 5.39893 5.39771 1.66797 10.0001 1.66797C14.6025 1.66797 18.3334 5.39893 18.3334 10.0013Z" stroke="#101828" stroke-width="1.66667" stroke-linecap="round" stroke-linejoin="round"/>
</g>
<defs>
<clipPath id="clip0_19_10923">
<rect width="20" height="20" fill="white"/>
</clipPath>
</defs>
</svg>
