<svg width="24" height="25" viewBox="0 0 24 25" fill="none" xmlns="http://www.w3.org/2000/svg">
<g clip-path="url(#clip0_277_2303)">
<path d="M18.5332 4.66906C18.7611 5.22033 19.1987 5.65852 19.7496 5.88729L21.6814 6.68748C22.2327 6.91584 22.6708 7.35386 22.8991 7.90517C23.1275 8.45649 23.1275 9.07593 22.8991 9.62725L22.0995 11.5577C21.871 12.1092 21.8707 12.7293 22.1002 13.2806L22.8984 15.2105C23.0117 15.4836 23.0699 15.7762 23.07 16.0718C23.07 16.3674 23.0118 16.6601 22.8987 16.9332C22.7856 17.2063 22.6198 17.4545 22.4107 17.6634C22.2017 17.8724 21.9535 18.0382 21.6804 18.1512L19.7499 18.9508C19.1987 19.1788 18.7605 19.6163 18.5317 20.1672L17.7315 22.099C17.5031 22.6504 17.0651 23.0884 16.5138 23.3167C15.9625 23.5451 15.343 23.5451 14.7917 23.3167L12.8613 22.5171C12.31 22.2893 11.6907 22.2898 11.1397 22.5184L9.20792 23.3175C8.65691 23.5453 8.038 23.5451 7.48713 23.3169C6.93627 23.0887 6.4985 22.6512 6.26998 22.1005L5.46955 20.1681C5.24161 19.6168 4.80408 19.1787 4.25315 18.9499L2.32132 18.1497C1.77025 17.9214 1.33236 17.4837 1.10392 16.9327C0.875471 16.3817 0.875161 15.7625 1.10306 15.2113L1.90267 13.2809C2.13047 12.7295 2.13001 12.1103 1.90138 11.5593L1.10291 9.62611C0.989703 9.35306 0.93141 9.06037 0.931363 8.76477C0.931315 8.46918 0.989514 8.17647 1.10263 7.90337C1.21575 7.63028 1.38158 7.38215 1.59063 7.17317C1.79968 6.96418 2.04786 6.79844 2.32099 6.68541L4.25144 5.88579C4.80223 5.65805 5.24015 5.22107 5.46909 4.67078L6.26928 2.73895C6.49764 2.18763 6.93566 1.74962 7.48697 1.52125C8.03829 1.29289 8.65774 1.29289 9.20905 1.52125L11.1395 2.32087C11.6908 2.54867 12.3101 2.54821 12.861 2.31958L14.7937 1.52249C15.3449 1.29426 15.9642 1.29431 16.5154 1.52262C17.0666 1.75094 17.5046 2.18883 17.733 2.74L18.5334 4.67241L18.5332 4.66906Z" fill="#008000"/>
<path fill-rule="evenodd" clip-rule="evenodd" d="M16.6999 9.27307C16.8602 9.02125 16.9139 8.71605 16.8492 8.42462C16.7845 8.13319 16.6067 7.87939 16.3549 7.71907C16.1031 7.55875 15.7979 7.50503 15.5064 7.56973C15.215 7.63443 14.9612 7.81225 14.8009 8.06407L10.3954 14.9866L8.37939 12.4666C8.19301 12.2334 7.92166 12.0839 7.62502 12.0509C7.32838 12.0178 7.03077 12.1039 6.79764 12.2903C6.56452 12.4767 6.41498 12.7481 6.38193 13.0447C6.34887 13.3413 6.43501 13.6389 6.62139 13.8721L9.62139 17.6221C9.7332 17.762 9.8768 17.8732 10.0402 17.9465C10.2037 18.0197 10.3823 18.0529 10.5611 18.0432C10.74 18.0335 10.9139 17.9813 11.0685 17.8908C11.2231 17.8003 11.3538 17.6743 11.4499 17.5231L16.6999 9.27307Z" fill="white"/>
</g>
<defs>
<clipPath id="clip0_277_2303">
<rect width="24" height="24" fill="white" transform="translate(0 0.417969)"/>
</clipPath>
</defs>
</svg>
