<svg width="169" height="48" viewBox="0 0 169 48" fill="none" xmlns="http://www.w3.org/2000/svg">
<rect x="1.36526" y="0.77664" width="167.071" height="46.2514" rx="23.1257" stroke="white" stroke-width="0.943905"/>
<path d="M46.3013 22.8477C46.2734 19.5222 49.0284 17.9012 49.1567 17.8288C47.5951 15.556 45.1748 15.2441 44.3215 15.2218C42.2859 15.0102 40.3172 16.4362 39.28 16.4362C38.2259 16.4362 36.6309 15.2441 34.9076 15.2775C32.6936 15.3109 30.6245 16.5922 29.4924 18.5752C27.1501 22.6249 28.8957 28.574 31.1432 31.8494C32.2641 33.4537 33.5748 35.2418 35.2925 35.1805C36.9711 35.1136 37.6013 34.1109 39.6257 34.1109C41.6334 34.1109 42.2245 35.1805 43.9757 35.1415C45.7771 35.1136 46.9148 33.5316 47.9967 31.9162C49.2961 30.078 49.8148 28.2676 49.8371 28.1785C49.7925 28.1507 46.3348 26.8305 46.3013 22.8477ZM42.9942 13.0661C43.8976 11.9353 44.5166 10.4035 44.3438 8.84375C43.0388 8.89942 41.3991 9.74612 40.4622 10.8491C39.6313 11.8239 38.884 13.417 39.0792 14.9155C40.5403 15.0213 42.0517 14.1746 42.9942 13.0661Z" fill="white"/>
<path d="M70.6277 34.9409H68.2798L66.9916 30.908H62.5244L61.2975 34.9409H59.011L63.4391 21.2044H66.1717L70.6277 34.9409ZM66.6068 29.2146L65.4412 25.6273C65.3185 25.2596 65.0842 24.3962 64.7496 23.0371H64.7106C64.5768 23.622 64.3537 24.4854 64.0581 25.6273L62.9148 29.2146H66.6068ZM81.9938 29.8663C81.9938 31.5486 81.5362 32.8799 80.6216 33.8603C79.8015 34.7293 78.7811 35.1638 77.5653 35.1638C76.2491 35.1638 75.3069 34.6958 74.7326 33.76V38.9572H72.5295V28.2899C72.5295 27.2316 72.5018 26.1453 72.4459 25.0368H74.3863L74.5095 26.6077H74.548C75.2846 25.4268 76.4 24.8307 77.8942 24.8307C79.0655 24.8307 80.0414 25.2931 80.8225 26.2177C81.6029 27.1425 81.9938 28.3624 81.9938 29.8663ZM79.7516 29.9499C79.7516 28.9862 79.5339 28.1897 79.0992 27.5658C78.6248 26.9141 77.9838 26.5909 77.1805 26.5909C76.6399 26.5909 76.1432 26.7748 75.7025 27.1313C75.2624 27.4934 74.9719 27.9669 74.8385 28.5461C74.7771 28.7634 74.7434 28.9918 74.738 29.2146V30.869C74.738 31.5876 74.9611 32.1947 75.4019 32.6961C75.842 33.1919 76.4168 33.4425 77.1245 33.4425C77.9555 33.4425 78.6025 33.1194 79.0655 32.4844C79.5171 31.8383 79.7516 30.9971 79.7516 29.9499ZM93.4038 29.8663C93.4038 31.5486 92.9468 32.8799 92.0317 33.8603C91.2121 34.7293 90.1917 35.1638 88.9759 35.1638C87.6597 35.1638 86.7169 34.6958 86.1427 33.76V38.9572H83.9395V28.2899C83.9395 27.2316 83.9119 26.1453 83.856 25.0368H85.7969L85.9196 26.6077H85.9587C86.6947 25.4268 87.81 24.8307 89.3048 24.8307C90.4762 24.8307 91.452 25.2931 92.2325 26.2177C93.0082 27.1425 93.4038 28.3624 93.4038 29.8663ZM91.1562 29.9499C91.1562 28.9862 90.9391 28.1897 90.5038 27.5658C90.03 26.9141 89.3884 26.5909 88.5857 26.5909C88.0445 26.5909 87.5479 26.7748 87.1017 27.1313C86.6616 27.4934 86.3712 27.9669 86.2377 28.5461C86.1703 28.8191 86.1318 29.0419 86.1318 29.2146V30.869C86.1318 31.5876 86.3549 32.1947 86.7951 32.6961C87.2358 33.1919 87.81 33.4425 88.5244 33.4425C89.3547 33.4425 90.0017 33.1194 90.4647 32.4844C90.9277 31.8383 91.1562 30.9971 91.1562 29.9499ZM106.158 31.0918C106.158 32.2616 105.751 33.2142 104.937 33.9439C104.045 34.746 102.79 35.1471 101.189 35.1471C99.7113 35.1471 98.5238 34.863 97.6255 34.2892L98.1329 32.4566C99.098 33.0303 100.163 33.3144 101.317 33.3144C102.148 33.3144 102.795 33.125 103.258 32.7518C103.721 32.3786 103.955 31.8773 103.955 31.2534C103.955 30.6963 103.76 30.2284 103.381 29.844C103.002 29.4653 102.371 29.1088 101.485 28.7857C99.0758 27.8889 97.8708 26.5742 97.8708 24.853C97.8708 23.7278 98.2947 22.8031 99.1479 22.0845C99.9957 21.3659 101.123 21.0039 102.528 21.0039C103.777 21.0039 104.82 21.2211 105.651 21.6556L105.099 23.4493C104.318 23.0259 103.442 22.8198 102.455 22.8198C101.68 22.8198 101.067 23.0092 100.631 23.388C100.263 23.7278 100.079 24.14 100.079 24.6302C100.079 25.1705 100.292 25.6217 100.715 25.9726C101.083 26.2958 101.747 26.6523 102.712 27.031C103.894 27.5101 104.764 28.0615 105.322 28.7022C105.879 29.3427 106.158 30.1393 106.158 31.0918ZM113.464 26.6912H111.032V31.4985C111.032 32.724 111.462 33.3311 112.321 33.3311C112.717 33.3311 113.04 33.2977 113.302 33.2309L113.364 34.902C112.929 35.0635 112.36 35.1471 111.652 35.1471C110.782 35.1471 110.101 34.8797 109.61 34.3505C109.12 33.8213 108.874 32.93 108.874 31.6823V26.6912H107.43V25.0424H108.874V23.2265L111.038 22.5747V25.0424H113.469L113.464 26.6912ZM124.4 29.9109C124.4 31.4316 123.965 32.685 123.095 33.6598C122.186 34.668 120.976 35.1693 119.465 35.1693C118.009 35.1693 116.849 34.6847 115.985 33.7266C115.121 32.7629 114.691 31.543 114.691 30.078C114.691 28.5406 115.137 27.2873 116.03 26.3069C116.922 25.3265 118.121 24.8419 119.632 24.8419C121.088 24.8419 122.259 25.3265 123.14 26.2902C123.976 27.2204 124.4 28.4292 124.4 29.9109ZM122.114 29.961C122.114 29.0531 121.919 28.2732 121.522 27.6271C121.06 26.8416 120.402 26.4461 119.543 26.4461C118.662 26.4461 117.981 26.8416 117.524 27.6271C117.128 28.2788 116.933 29.0698 116.933 30.0056C116.933 30.9136 117.128 31.6934 117.524 32.3452C117.998 33.1306 118.668 33.5261 119.526 33.5261C120.369 33.5261 121.026 33.125 121.506 32.3285C121.913 31.6544 122.114 30.869 122.114 29.961ZM131.567 26.9753C131.338 26.9363 131.104 26.9141 130.869 26.9141C130.094 26.9141 129.498 27.2037 129.074 27.7886C128.706 28.3066 128.522 28.9584 128.522 29.7438V34.9409H126.319V28.1562C126.319 27.1146 126.302 26.0785 126.258 25.0368H128.176L128.254 26.9307H128.315C128.55 26.279 128.912 25.7554 129.42 25.3599C129.877 25.0145 130.44 24.8307 131.014 24.8307C131.221 24.8307 131.399 24.8475 131.567 24.8697V26.9753ZM141.421 29.521C141.427 29.8552 141.399 30.1894 141.343 30.5181H134.729C134.751 31.4985 135.075 32.2449 135.688 32.7629C136.246 33.2253 136.965 33.4537 137.852 33.4537C138.834 33.4537 139.726 33.2977 140.529 32.9858L140.875 34.512C139.938 34.9187 138.828 35.1248 137.551 35.1248C136.012 35.1248 134.807 34.6736 133.926 33.7712C133.05 32.8688 132.61 31.6544 132.61 30.1337C132.61 28.6408 133.017 27.3987 133.837 26.4072C134.69 25.3488 135.85 24.8196 137.306 24.8196C138.733 24.8196 139.815 25.3488 140.551 26.4072C141.126 27.2483 141.421 28.2843 141.421 29.521ZM139.319 28.9528C139.336 28.3011 139.191 27.7385 138.889 27.2594C138.51 26.6467 137.919 26.3403 137.132 26.3403C136.413 26.3403 135.828 26.6411 135.376 27.2371C135.008 27.7106 134.79 28.2843 134.723 28.9473L139.319 28.9528Z" fill="white"/>
<path d="M61.8885 16.3511C61.2751 16.3511 60.7453 16.3232 60.3047 16.273V9.62761C60.9238 9.53289 61.5484 9.48275 62.173 9.48833C64.6993 9.48833 65.8649 10.7305 65.8649 12.7526C65.8593 15.0865 64.4874 16.3511 61.8885 16.3511ZM62.2622 10.3406C61.922 10.3406 61.632 10.3629 61.3922 10.413V15.4598C61.5205 15.4821 61.7715 15.4876 62.1228 15.4876C63.7791 15.4876 64.7216 14.5463 64.7216 12.786C64.716 11.2096 63.8628 10.3406 62.2622 10.3406ZM69.4899 16.4011C68.0678 16.4011 67.142 15.3372 67.142 13.8945C67.142 12.3905 68.0845 11.321 69.568 11.321C70.9733 11.321 71.916 12.3348 71.916 13.8165C71.916 15.3372 70.9455 16.4011 69.4899 16.4011ZM69.5289 12.112C68.7482 12.112 68.2463 12.8417 68.2463 13.8666C68.2463 14.8693 68.7593 15.599 69.5178 15.599C70.2819 15.599 70.7893 14.8192 70.7893 13.8444C70.7949 12.8528 70.293 12.112 69.5289 12.112ZM80.0358 11.4212L78.5134 16.2897H77.5206L76.8905 14.1786C76.7342 13.6605 76.6007 13.1369 76.5003 12.6078H76.478C76.3998 13.1369 76.2489 13.6717 76.0872 14.1786L75.4179 16.2897H74.4144L72.9809 11.4212H74.0963L74.6483 13.7329C74.777 14.2844 74.8882 14.8025 74.9778 15.2982H75C75.0782 14.886 75.2117 14.3791 75.4017 13.7441L76.0932 11.4212H76.9741L77.6379 13.694C77.7996 14.2454 77.9277 14.7858 78.0281 15.2982H78.0558C78.1285 14.7969 78.2344 14.2677 78.3853 13.694L78.9764 11.4212H80.0358ZM85.6519 16.2897H84.5701V13.4934C84.5701 12.63 84.2406 12.2011 83.5882 12.2011C82.9473 12.2011 82.5065 12.7526 82.5065 13.3931V16.2897H81.4248V12.8138C81.4248 12.3849 81.4134 11.9226 81.3857 11.4212H82.3394L82.3893 12.1732H82.4169C82.7074 11.6552 83.2984 11.321 83.9622 11.321C84.9826 11.321 85.6573 12.1009 85.6573 13.3764L85.6519 16.2897ZM88.6355 16.2897H87.5537V9.1875H88.6355V16.2897ZM92.5895 16.4011C91.1675 16.4011 90.2415 15.3372 90.2415 13.8945C90.2415 12.3905 91.1843 11.321 92.6677 11.321C94.0729 11.321 95.0157 12.3348 95.0157 13.8165C95.0157 15.3372 94.0398 16.4011 92.5895 16.4011ZM92.6286 12.112C91.8475 12.112 91.3461 12.8417 91.3461 13.8666C91.3461 14.8693 91.859 15.599 92.6172 15.599C93.3814 15.599 93.8889 14.8192 93.8889 13.8444C93.8889 12.8528 93.3928 12.112 92.6286 12.112ZM99.2873 16.2897L99.2091 15.7271H99.1814C98.8525 16.1783 98.3673 16.3956 97.754 16.3956C96.8779 16.3956 96.2592 15.7828 96.2592 14.964C96.2592 13.7608 97.3018 13.1425 99.1087 13.1425V13.0534C99.1087 12.4127 98.769 12.0897 98.0997 12.0897C97.6199 12.0897 97.196 12.2123 96.828 12.4518L96.6103 11.7388C97.0625 11.4602 97.6253 11.3154 98.2837 11.3154C99.5548 11.3154 100.202 11.9839 100.202 13.3263V15.12C100.202 15.6102 100.224 15.9945 100.275 16.2842L99.2873 16.2897ZM99.1369 13.8666C97.932 13.8666 97.3301 14.1563 97.3301 14.847C97.3301 15.3595 97.6422 15.6102 98.0715 15.6102C98.6241 15.6102 99.1369 15.1924 99.1369 14.6186V13.8666ZM105.45 16.2897L105.4 15.5099H105.372C105.06 16.1004 104.535 16.4011 103.805 16.4011C102.628 16.4011 101.758 15.3707 101.758 13.9168C101.758 12.396 102.662 11.321 103.894 11.321C104.547 11.321 105.009 11.5382 105.266 11.9839H105.288V9.1875H106.37V14.9751C106.37 15.443 106.381 15.8887 106.409 16.2842H105.45V16.2897ZM105.294 13.4266C105.294 12.747 104.842 12.1621 104.15 12.1621C103.347 12.1621 102.857 12.8751 102.857 13.8722C102.857 14.8526 103.364 15.5266 104.128 15.5266C104.808 15.5266 105.294 14.9361 105.294 14.2343V13.4266ZM113.252 16.4011C111.83 16.4011 110.904 15.3372 110.904 13.8945C110.904 12.3905 111.846 11.321 113.33 11.321C114.736 11.321 115.678 12.3348 115.678 13.8165C115.678 15.3372 114.708 16.4011 113.252 16.4011ZM113.291 12.112C112.51 12.112 112.008 12.8417 112.008 13.8666C112.008 14.8693 112.522 15.599 113.28 15.599C114.044 15.599 114.552 14.8192 114.552 13.8444C114.557 12.8528 114.055 12.112 113.291 12.112ZM121.506 16.2897H120.424V13.4934C120.424 12.63 120.095 12.2011 119.442 12.2011C118.801 12.2011 118.361 12.7526 118.361 13.3931V16.2897H117.278V12.8138C117.278 12.3849 117.268 11.9226 117.239 11.4212H118.193L118.243 12.1732H118.271C118.562 11.6552 119.153 11.321 119.816 11.321C120.837 11.321 121.511 12.1009 121.511 13.3764V16.2897H121.506ZM128.789 12.2345H127.596V14.5963C127.596 15.1979 127.802 15.4988 128.226 15.4988C128.415 15.4988 128.577 15.4765 128.706 15.4486L128.734 16.2675C128.522 16.3455 128.243 16.39 127.892 16.39C127.038 16.39 126.525 15.9221 126.525 14.6855V12.229H125.811V11.4157H126.525V10.5244L127.59 10.2013V11.4157H128.784L128.789 12.2345ZM134.528 16.2897H133.446V13.5157C133.446 12.6467 133.117 12.2067 132.465 12.2067C131.901 12.2067 131.383 12.5855 131.383 13.3597V16.2953H130.301V9.1875H131.383V12.112H131.405C131.745 11.5828 132.241 11.321 132.872 11.321C133.903 11.321 134.534 12.1231 134.534 13.3931L134.528 16.2897ZM140.4 14.1173H137.149C137.171 15.0364 137.779 15.56 138.683 15.56C139.162 15.56 139.608 15.4821 139.999 15.3316L140.166 16.0836C139.703 16.2842 139.162 16.3845 138.532 16.3845C137.01 16.3845 136.107 15.4208 136.107 13.9335C136.107 12.4406 137.032 11.321 138.409 11.321C139.653 11.321 140.434 12.2401 140.434 13.6327C140.445 13.7887 140.434 13.9558 140.4 14.1173ZM139.408 13.343C139.408 12.591 139.029 12.0618 138.337 12.0618C137.713 12.0618 137.222 12.6022 137.155 13.343H139.408Z" fill="white"/>
</svg>
