<svg width="25" height="25" viewBox="0 0 25 25" fill="none" xmlns="http://www.w3.org/2000/svg">
<path d="M20.5 4.5H4.5C3.4 4.5 2.5 5.4 2.5 6.5V18.5C2.5 19.6 3.4 20.5 4.5 20.5H20.5C21.6 20.5 22.5 19.6 22.5 18.5V6.5C22.5 5.4 21.6 4.5 20.5 4.5ZM20.1 8.75L13.56 12.84C12.91 13.25 12.09 13.25 11.44 12.84L4.9 8.75C4.79973 8.69371 4.71192 8.61766 4.64189 8.52645C4.57186 8.43525 4.52106 8.33078 4.49258 8.21937C4.46409 8.10796 4.4585 7.99194 4.47616 7.87831C4.49381 7.76468 4.53434 7.65581 4.59528 7.5583C4.65623 7.46079 4.73632 7.37666 4.83073 7.311C4.92513 7.24533 5.03187 7.19951 5.1445 7.1763C5.25712 7.15309 5.37328 7.15297 5.48595 7.17595C5.59863 7.19893 5.70546 7.24453 5.8 7.31L12.5 11.5L19.2 7.31C19.2945 7.24453 19.4014 7.19893 19.514 7.17595C19.6267 7.15297 19.7429 7.15309 19.8555 7.1763C19.9681 7.19951 20.0749 7.24533 20.1693 7.311C20.2637 7.37666 20.3438 7.46079 20.4047 7.5583C20.4657 7.65581 20.5062 7.76468 20.5238 7.87831C20.5415 7.99194 20.5359 8.10796 20.5074 8.21937C20.4789 8.33078 20.4281 8.43525 20.3581 8.52645C20.2881 8.61766 20.2003 8.69371 20.1 8.75Z" fill="white"/>
</svg>
