<svg width="169" height="48" viewBox="0 0 169 48" fill="none" xmlns="http://www.w3.org/2000/svg">
<rect x="0.471953" y="0.77664" width="167.071" height="46.2514" rx="23.1257" stroke="white" stroke-width="0.943905"/>
<path d="M63.5751 13.5967C63.5751 14.409 63.3718 15.1198 62.8635 15.6275C62.2536 16.2366 61.542 16.5413 60.6271 16.5413C59.7122 16.5413 59.0006 16.2366 58.3907 15.6275C57.7808 15.0182 57.4758 14.3075 57.4758 13.3937C57.4758 12.4799 57.7808 11.7692 58.3907 11.1599C59.0006 10.5507 59.7122 10.2461 60.6271 10.2461C61.0337 10.2461 61.4404 10.3476 61.8469 10.5507C62.2536 10.7538 62.5585 10.9569 62.7618 11.2614L62.2536 11.7691C61.8469 11.2614 61.3387 11.0584 60.6271 11.0584C60.0172 11.0584 59.4072 11.2614 59.0006 11.7691C58.4924 12.1752 58.2891 12.7845 58.2891 13.4952C58.2891 14.206 58.4924 14.8152 59.0006 15.2213C59.5089 15.6275 60.0172 15.932 60.6271 15.932C61.3387 15.932 61.8469 15.729 62.3553 15.2213C62.6602 14.9167 62.8635 14.5105 62.8635 14.0029H60.6271V13.2922H63.5751C63.5751 13.2922 63.5751 13.3937 63.5751 13.5967Z" fill="white" stroke="white" stroke-width="0.143892" stroke-miterlimit="10"/>
<path d="M68.2518 11.0584H65.5071V12.9875H68.0484V13.6983H65.5071V15.6275H68.2518V16.3382H64.6938V10.2461H68.2518V11.0584Z" fill="white" stroke="white" stroke-width="0.143892" stroke-miterlimit="10"/>
<path d="M71.6063 16.3382H70.7928V10.9569H69.0647V10.2461H73.334V10.9569H71.6063V16.3382Z" fill="white" stroke="white" stroke-width="0.143892" stroke-miterlimit="10"/>
<path d="M76.2825 16.3382V10.2461H77.0952V16.3382H76.2825Z" fill="white" stroke="white" stroke-width="0.143892" stroke-miterlimit="10"/>
<path d="M80.5518 16.3382H79.739V10.9569H78.0107V10.2461H82.1785V10.9569H80.4502V16.3382H80.5518Z" fill="white" stroke="white" stroke-width="0.143892" stroke-miterlimit="10"/>
<path d="M90.2089 15.6275C89.5991 16.2366 88.8873 16.5413 87.9724 16.5413C87.0575 16.5413 86.3463 16.2366 85.7359 15.6275C85.1262 15.0182 84.821 14.3075 84.821 13.3937C84.821 12.4799 85.1262 11.7692 85.7359 11.1599C86.3463 10.5507 87.0575 10.2461 87.9724 10.2461C88.8873 10.2461 89.5991 10.5507 90.2089 11.1599C90.8186 11.7692 91.1237 12.4799 91.1237 13.3937C91.1237 14.206 90.8186 15.0182 90.2089 15.6275ZM86.3463 15.1198C86.7529 15.5259 87.3627 15.8305 87.9724 15.8305C88.5827 15.8305 89.1924 15.6275 89.5991 15.1198C90.0058 14.7136 90.3104 14.1045 90.3104 13.3937C90.3104 12.6829 90.1073 12.0737 89.5991 11.6676C89.1924 11.2614 88.5827 10.9569 87.9724 10.9569C87.3627 10.9569 86.7529 11.1599 86.3463 11.6676C85.9396 12.0737 85.6344 12.6829 85.6344 13.3937C85.6344 14.0029 85.838 14.6121 86.3463 15.1198Z" fill="white" stroke="white" stroke-width="0.143892" stroke-miterlimit="10"/>
<path d="M92.2422 16.3382V10.2461H93.1571L96.1048 15.0182V13.7998V10.2461H96.9182V16.3382H96.1048L92.9534 11.363V12.5814V16.3382H92.2422Z" fill="white" stroke="white" stroke-width="0.143892" stroke-miterlimit="10"/>
<path d="M84.6172 25.2721C82.1777 25.2721 80.2464 27.0997 80.2464 29.6381C80.2464 32.075 82.1777 34.0041 84.6172 34.0041C87.0568 34.0041 88.9886 32.1765 88.9886 29.6381C88.9886 27.0997 87.0568 25.2721 84.6172 25.2721ZM84.6172 32.1765C83.2957 32.1765 82.1777 31.0596 82.1777 29.5366C82.1777 28.0136 83.2957 26.8967 84.6172 26.8967C85.9388 26.8967 87.0568 27.912 87.0568 29.5366C87.0568 31.1611 85.9388 32.1765 84.6172 32.1765ZM75.1632 25.2721C72.7237 25.2721 70.7923 27.0997 70.7923 29.6381C70.7923 32.075 72.7237 34.0041 75.1632 34.0041C77.6033 34.0041 79.5346 32.1765 79.5346 29.6381C79.5346 27.0997 77.6033 25.2721 75.1632 25.2721ZM75.1632 32.1765C73.8422 32.1765 72.7237 31.0596 72.7237 29.5366C72.7237 28.0136 73.8422 26.8967 75.1632 26.8967C76.4848 26.8967 77.6033 27.912 77.6033 29.5366C77.6033 31.1611 76.4848 32.1765 75.1632 32.1765ZM63.8799 26.5921V28.4197H68.251C68.1493 29.4351 67.7427 30.2473 67.2344 30.755C66.6245 31.3642 65.6079 32.075 63.8799 32.075C61.1352 32.075 59.1021 29.9427 59.1021 27.2013C59.1021 24.4599 61.2368 22.3276 63.8799 22.3276C65.303 22.3276 66.4212 22.9368 67.2344 23.6476L68.5559 22.3276C67.4377 21.3123 66.0146 20.5 63.9815 20.5C60.3219 20.5 57.1707 23.5461 57.1707 27.2013C57.1707 30.8565 60.3219 33.9026 63.9815 33.9026C66.0146 33.9026 67.4377 33.2934 68.6576 31.9734C69.8775 30.755 70.284 29.0289 70.284 27.709C70.284 27.3028 70.284 26.8967 70.1824 26.5921H63.8799ZM110.031 28.0136C109.624 26.9982 108.607 25.2721 106.372 25.2721C104.135 25.2721 102.305 26.9982 102.305 29.6381C102.305 32.075 104.135 34.0041 106.575 34.0041C108.506 34.0041 109.726 32.7857 110.133 32.075L108.71 31.0596C108.201 31.7703 107.591 32.278 106.575 32.278C105.558 32.278 104.948 31.8719 104.44 30.9581L110.234 28.5212L110.031 28.0136ZM104.135 29.4351C104.135 27.8105 105.457 26.8967 106.372 26.8967C107.083 26.8967 107.795 27.3028 107.998 27.8105L104.135 29.4351ZM99.357 33.598H101.288V20.9061H99.357V33.598ZM96.3078 26.1859C95.799 25.6783 94.9862 25.1706 93.9692 25.1706C91.8348 25.1706 89.8014 27.0997 89.8014 29.5366C89.8014 31.9734 91.7333 33.8011 93.9692 33.8011C94.9862 33.8011 95.799 33.2934 96.2056 32.7857H96.3078V33.3949C96.3078 35.0194 95.3929 35.9333 93.9692 35.9333C92.8512 35.9333 92.0379 35.121 91.8348 34.4102L90.2081 35.121C90.7163 36.2379 91.9364 37.6594 94.0713 37.6594C96.3078 37.6594 98.1375 36.3394 98.1375 33.1919V25.4752H96.3078V26.1859ZM94.0713 32.1765C92.7497 32.1765 91.6312 31.0596 91.6312 29.5366C91.6312 28.0136 92.7497 26.8967 94.0713 26.8967C95.3929 26.8967 96.4093 28.0136 96.4093 29.5366C96.4093 31.0596 95.3929 32.1765 94.0713 32.1765ZM118.875 20.9061H114.3V33.598H116.232V28.8258H118.875C121.009 28.8258 123.043 27.3028 123.043 24.866C123.043 22.4291 121.009 20.9061 118.875 20.9061ZM118.976 27.0997H116.232V22.7338H118.976C120.399 22.7338 121.213 23.9522 121.213 24.866C121.111 25.8814 120.298 27.0997 118.976 27.0997ZM130.667 25.2721C129.243 25.2721 127.82 25.8814 127.312 27.2013L129.04 27.912C129.447 27.2013 130.057 26.9982 130.768 26.9982C131.785 26.9982 132.7 27.6075 132.801 28.6228V28.7243C132.497 28.5212 131.683 28.2167 130.87 28.2167C129.04 28.2167 127.21 29.232 127.21 31.0596C127.21 32.7857 128.735 33.9026 130.362 33.9026C131.683 33.9026 132.293 33.2934 132.801 32.6842H132.903V33.6995H134.732V28.8258C134.529 26.4906 132.801 25.2721 130.667 25.2721ZM130.463 32.1765C129.853 32.1765 128.939 31.8719 128.939 31.0596C128.939 30.0443 130.057 29.7397 130.971 29.7397C131.785 29.7397 132.191 29.9428 132.7 30.1458C132.497 31.3642 131.48 32.1765 130.463 32.1765ZM141.137 25.4752L139.002 30.9581H138.901L136.664 25.4752H134.631L137.986 33.1919L136.054 37.4563H137.986L143.17 25.4752H141.137ZM124.059 33.598H125.99V20.9061H124.059V33.598Z" fill="white"/>
<path d="M25.4549 36.1374C25.0483 35.9344 24.845 35.4267 24.845 34.919C24.845 34.8175 24.845 34.6144 24.845 34.5129C24.845 26.9993 24.845 19.4857 24.845 12.0737C24.845 11.6676 24.9466 11.363 25.0483 10.9568C25.15 10.7537 25.3532 10.5507 25.5566 10.3477C29.9277 14.7136 34.1971 19.0796 38.4666 23.4456C34.0955 27.507 29.826 31.7715 25.4549 36.1374Z" fill="white"/>
<path d="M42.7359 18.978C41.5161 20.1965 40.1945 21.4149 38.9747 22.7348C34.9086 18.5719 30.7407 14.409 26.6746 10.2461C26.6746 10.2461 26.6746 10.1445 26.7762 10.1445C32.0622 13.089 37.3482 16.0336 42.7359 18.978Z" fill="white"/>
<path d="M26.6746 36.1373C30.7407 32.0759 34.9086 28.0145 38.9747 23.9531C40.0929 25.07 41.3128 26.1869 42.6343 27.4053C37.3482 30.3498 32.0622 33.2943 26.7762 36.1373H26.6746Z" fill="white"/>
<path d="M43.3462 26.9979C42.0247 25.7795 40.8049 24.5611 39.4834 23.3427C40.8049 22.0227 42.1264 20.7028 43.4479 19.3828C43.8545 19.5859 44.2611 19.789 44.6677 20.0935C45.6843 20.7028 46.8025 21.2104 47.819 21.8196C48.124 21.9212 48.3273 22.1243 48.5306 22.4288C48.9372 22.9365 48.9372 23.4442 48.5306 23.9519C48.3273 24.1549 48.124 24.358 47.819 24.4595C46.3959 25.3734 44.8711 26.1857 43.3462 26.9979Z" fill="white"/>
</svg>
