<svg width="25" height="25" viewBox="0 0 25 25" fill="none" xmlns="http://www.w3.org/2000/svg">
<path d="M12.501 2.5C18.024 2.5 22.501 6.977 22.501 12.5C22.501 18.023 18.024 22.5 12.501 22.5C10.7337 22.503 8.99757 22.0353 7.47099 21.145L2.50499 22.5L3.85699 17.532C2.96595 16.0049 2.49789 14.268 2.50099 12.5C2.50099 6.977 6.97799 2.5 12.501 2.5ZM9.09299 7.8L8.89299 7.808C8.76368 7.81691 8.63734 7.85087 8.52099 7.908C8.41257 7.96951 8.31355 8.0463 8.22699 8.136C8.10699 8.249 8.03899 8.347 7.96599 8.442C7.59611 8.9229 7.39696 9.51331 7.39999 10.12C7.40199 10.61 7.52999 11.087 7.72999 11.533C8.13899 12.435 8.81199 13.39 9.69999 14.275C9.91399 14.488 10.124 14.702 10.35 14.901C11.4534 15.8724 12.7683 16.573 14.19 16.947L14.758 17.034C14.943 17.044 15.128 17.03 15.314 17.021C15.6052 17.0056 15.8895 16.9268 16.147 16.79C16.2778 16.7223 16.4056 16.6489 16.53 16.57C16.53 16.57 16.5723 16.5413 16.655 16.48C16.79 16.38 16.873 16.309 16.985 16.192C17.069 16.1053 17.139 16.0047 17.195 15.89C17.273 15.727 17.351 15.416 17.383 15.157C17.407 14.959 17.4 14.851 17.397 14.784C17.393 14.677 17.304 14.566 17.207 14.519L16.625 14.258C16.625 14.258 15.755 13.879 15.223 13.637C15.1673 13.6128 15.1077 13.5989 15.047 13.596C14.9786 13.5888 14.9094 13.5965 14.8442 13.6184C14.779 13.6403 14.7192 13.676 14.669 13.723C14.664 13.721 14.597 13.778 13.874 14.654C13.8325 14.7098 13.7753 14.7519 13.7098 14.7751C13.6443 14.7982 13.5733 14.8013 13.506 14.784C13.4408 14.7666 13.377 14.7446 13.315 14.718C13.191 14.666 13.148 14.646 13.063 14.61C12.4889 14.3599 11.9574 14.0215 11.488 13.607C11.362 13.497 11.245 13.377 11.125 13.261C10.7316 12.8842 10.3887 12.458 10.105 11.993L10.046 11.898C10.0043 11.8338 9.97003 11.765 9.94399 11.693C9.90599 11.546 10.005 11.428 10.005 11.428C10.005 11.428 10.248 11.162 10.361 11.018C10.471 10.878 10.564 10.742 10.624 10.645C10.742 10.455 10.779 10.26 10.717 10.109C10.437 9.425 10.1477 8.74467 9.84899 8.068C9.78999 7.934 9.61499 7.838 9.45599 7.819C9.40199 7.81233 9.34799 7.807 9.29399 7.803C9.15972 7.7953 9.02508 7.79664 8.89099 7.807L9.09299 7.8Z" fill="white"/>
</svg>
