<svg width="237" height="178" viewBox="0 0 237 178" fill="none" xmlns="http://www.w3.org/2000/svg">
<g clip-path="url(#clip0_19_11259)">
<path d="M152.097 177.95C142.195 177.95 132.156 176.283 122.362 172.891C93.0286 162.725 71.5776 138.94 64.9698 109.273C59.6364 86.2243 63.5972 62.4693 76.107 42.3908C88.6365 22.2829 108.244 8.26323 131.323 2.91027C148.764 -1.13876 166.48 -0.0603247 181.215 5.9495C197.49 12.5868 208.803 24.9103 212.254 39.7535L183.215 46.4986C180.607 35.2633 161.431 26.528 138.068 31.9496C122.754 35.5084 109.735 44.8124 101.421 58.1555C93.1071 71.4987 90.4796 87.2831 94.0384 102.607L94.0679 102.754C98.4012 122.273 112.627 137.97 132.137 144.734C151.686 151.509 172.607 148.009 188.078 135.362L206.941 158.44C191.235 171.274 171.931 177.96 152.097 177.96V177.95Z" fill="url(#paint0_linear_19_11259)"/>
<path d="M107.069 128.714C74.226 128.714 40.9808 116.489 18.4612 87.322L42.0593 69.1063C58.3338 90.1749 82.6671 99.0083 107.03 99.0083C123.089 99.0083 139.148 95.175 152.912 88.4887C170.52 79.9298 187.716 64.3317 183.148 46.214L212.05 38.9297C216.01 54.6454 212.922 70.5278 203.108 84.871C194.805 97.0083 181.952 107.528 165.942 115.312C148.344 123.861 127.785 128.724 107.069 128.724V128.714Z" fill="url(#paint1_linear_19_11259)"/>
<path d="M219.453 147.947C228.945 147.947 236.639 140.252 236.639 130.761C236.639 121.269 228.945 113.574 219.453 113.574C209.961 113.574 202.267 121.269 202.267 130.761C202.267 140.252 209.961 147.947 219.453 147.947Z" fill="#068C90"/>
<path d="M16.4723 76.2811C25.5688 76.2811 32.9429 68.907 32.9429 59.8105C32.9429 50.714 25.5688 43.3398 16.4723 43.3398C7.37585 43.3398 0.00170898 50.714 0.00170898 59.8105C0.00170898 68.907 7.37585 76.2811 16.4723 76.2811Z" fill="#9FF21C"/>
</g>
<defs>
<linearGradient id="paint0_linear_19_11259" x1="132.578" y1="167.921" x2="138.646" y2="44.4986" gradientUnits="userSpaceOnUse">
<stop stop-color="#068A90"/>
<stop offset="0.66" stop-color="#02C685"/>
</linearGradient>
<linearGradient id="paint1_linear_19_11259" x1="39.3436" y1="110.018" x2="199.707" y2="69.2632" gradientUnits="userSpaceOnUse">
<stop stop-color="#9FF21C"/>
<stop offset="1" stop-color="#02C685"/>
</linearGradient>
<clipPath id="clip0_19_11259">
<rect width="236.638" height="177.452" fill="white" transform="translate(0 0.5)"/>
</clipPath>
</defs>
</svg>
