<svg width="16" height="17" viewBox="0 0 16 17" fill="none" xmlns="http://www.w3.org/2000/svg">
<g clip-path="url(#clip0_2_23936)">
<path d="M2.99992 14.7271V11.3938M2.99992 4.72713V1.3938M1.33325 3.06047H4.66659M1.33325 13.0605H4.66659M8.66658 2.06047L7.51047 5.06637C7.32246 5.55519 7.22845 5.7996 7.08227 6.00519C6.95271 6.1874 6.79352 6.34659 6.61131 6.47615C6.40572 6.62233 6.16131 6.71634 5.67249 6.90435L2.66659 8.06047L5.67249 9.21658C6.16131 9.40459 6.40572 9.49859 6.61131 9.64478C6.79352 9.77434 6.95271 9.93353 7.08227 10.1157C7.22845 10.3213 7.32246 10.5657 7.51047 11.0546L8.66659 14.0605L9.8227 11.0546C10.0107 10.5657 10.1047 10.3213 10.2509 10.1157C10.3805 9.93353 10.5397 9.77434 10.7219 9.64478C10.9274 9.49859 11.1719 9.40459 11.6607 9.21658L14.6666 8.06047L11.6607 6.90435C11.1719 6.71634 10.9274 6.62233 10.7219 6.47615C10.5397 6.34659 10.3805 6.1874 10.2509 6.00519C10.1047 5.7996 10.0107 5.55519 9.8227 5.06637L8.66658 2.06047Z" stroke="#008000" stroke-width="1.33333" stroke-linecap="round" stroke-linejoin="round"/>
</g>
<defs>
<clipPath id="clip0_2_23936">
<rect width="16" height="16" fill="white" transform="translate(0 0.0605469)"/>
</clipPath>
</defs>
</svg>
